<svg xmlns="http://www.w3.org/2000/svg" viewBox="-1.2 -6.32 75.23 51.97"><g id="l" stroke="currentColor" stroke-width=".16" stroke-linejoin="round"><path d="M22.69 3.7L23.56 3.2L23.99 3.45L23.12 3.95Z" style="fill:color-mix(in srgb,currentColor 30%,var(--board-hole,#000))"/><path d="M23.43 4.12L24.29 3.62L24.72 3.87L23.86 4.37Z" style="fill:color-mix(in srgb,currentColor 30%,var(--board-hole,#000))"/><path d="M24.16 4.55L25.03 4.05L25.46 4.3L24.59 4.8Z" style="fill:color-mix(in srgb,currentColor 30%,var(--board-hole,#000))"/><path d="M24.72 5.02L25.24 4.72L25.5 4.87L24.98 5.17Z" style="fill:color-mix(in srgb,currentColor 30%,var(--board-hole,#000))"/><path d="M21 4.77L21.87 5.27L21.43 5.52L20.57 5.02Z" style="fill:color-mix(in srgb,currentColor 30%,var(--board-hole,#000))"/><path d="M26.98 5.47L26.46 5.17L26.72 5.02L27.24 5.32Z" style="fill:color-mix(in srgb,currentColor 30%,var(--board-hole,#000))"/><path d="M26.63 5.62L25.94 6.02L24.9 5.42L25.59 5.02Z" style="fill:color-mix(in srgb,currentColor 30%,var(--board-hole,#000))"/><path d="M24.03 4.82L25.76 5.82L24.38 6.62L22.65 5.62Z" style="fill:color-mix(in srgb,currentColor 30%,var(--board-hole,#000))"/><path d="M26.98 5.97L26.46 6.27L26.2 6.12L26.72 5.82Z" style="fill:color-mix(in srgb,currentColor 30%,var(--board-hole,#000))"/><path d="M28.1 5.97L27.58 6.27L27.32 6.12L27.84 5.82Z" style="fill:color-mix(in srgb,currentColor 30%,var(--board-hole,#000))"/><path d="M28.06 6.55L28.92 6.05L29.36 6.3L28.49 6.8Z" style="fill:color-mix(in srgb,currentColor 30%,var(--board-hole,#000))"/><path d="M25.85 6.97L26.72 6.47L27.15 6.72L26.28 7.22Z" style="fill:color-mix(in srgb,currentColor 30%,var(--board-hole,#000))"/><path d="M28.71 7.02L29.23 6.72L29.49 6.87L28.97 7.17Z" style="fill:color-mix(in srgb,currentColor 30%,var(--board-hole,#000))"/><path d="M24.81 7.52L23.94 7.02L24.38 6.77L25.24 7.27Z" style="fill:color-mix(in srgb,currentColor 30%,var(--board-hole,#000))"/><path d="M26.54 7.37L27.41 6.87L27.84 7.12L26.98 7.62Z" style="fill:color-mix(in srgb,currentColor 30%,var(--board-hole,#000))"/><path d="M31 8L28.84 9.25L28.84 10.53L31 9.28ZM28.84 9.25L27.54 8.5L27.54 9.78L28.84 10.53Z" style="fill:color-mix(in srgb,currentColor 9%,var(--board-hole,#000))"/><path d="M29.7 7.25L31 8L28.84 9.25L27.54 8.5Z" style="fill:color-mix(in srgb,currentColor 18%,var(--board-hole,#000))"/><path d="M31.13 8.42L32 7.92L32.43 8.17L31.57 8.67Z" style="fill:color-mix(in srgb,currentColor 30%,var(--board-hole,#000))"/><path d="M27.28 9.05L26.76 8.75L27.02 8.6L27.54 8.9Z" style="fill:color-mix(in srgb,currentColor 30%,var(--board-hole,#000))"/><path d="M31.91 9.57L32.78 9.07L33.21 9.32L32.35 9.82Z" style="fill:color-mix(in srgb,currentColor 30%,var(--board-hole,#000))"/><path d="M28.36 9.72L27.84 9.42L28.1 9.27L28.62 9.57Z" style="fill:color-mix(in srgb,currentColor 30%,var(--board-hole,#000))"/><path d="M31.05 10.87L29.31 9.87L30.7 9.07L32.43 10.07Z" style="fill:color-mix(in srgb,currentColor 30%,var(--board-hole,#000))"/><path d="M12.3 13.65L11.78 13.35L12.04 13.2L12.56 13.5Z" style="fill:color-mix(in srgb,currentColor 30%,var(--board-hole,#000))"/><path d="M7.14 13.32L6.28 13.82L5.85 13.57L6.71 13.07Z" style="fill:color-mix(in srgb,currentColor 30%,var(--board-hole,#000))"/><path d="M11.52 13.5L12.04 13.8L11.78 13.95L11.26 13.65Z" style="fill:color-mix(in srgb,currentColor 30%,var(--board-hole,#000))"/><path d="M8.01 13.82L7.14 14.32L6.71 14.07L7.58 13.57Z" style="fill:color-mix(in srgb,currentColor 30%,var(--board-hole,#000))"/><path d="M10.95 13.67L11.65 14.07L10.61 14.67L9.92 14.27Z" style="fill:color-mix(in srgb,currentColor 30%,var(--board-hole,#000))"/><path d="M13.73 15.02L12.86 14.52L13.29 14.27L14.16 14.77Z" style="fill:color-mix(in srgb,currentColor 30%,var(--board-hole,#000))"/><path d="M12.6 15.97L10.87 14.97L12.25 14.17L13.99 15.17Z" style="fill:color-mix(in srgb,currentColor 30%,var(--board-hole,#000))"/><path d="M13.64 15.87L14.51 15.37L14.94 15.62L14.07 16.12Z" style="fill:color-mix(in srgb,currentColor 30%,var(--board-hole,#000))"/><path d="M14.72 16.2L15.59 16.7L15.15 16.95L14.29 16.45Z" style="fill:color-mix(in srgb,currentColor 30%,var(--board-hole,#000))"/><path d="M18.79 18.45L19.31 18.15L19.57 18.3L19.05 18.6Z" style="fill:color-mix(in srgb,currentColor 30%,var(--board-hole,#000))"/><path d="M17.67 18.5L18.19 18.2L18.45 18.35L17.93 18.65Z" style="fill:color-mix(in srgb,currentColor 30%,var(--board-hole,#000))"/><path d="M19.44 18.67L20.13 19.07L19.1 19.67L18.4 19.27Z" style="fill:color-mix(in srgb,currentColor 30%,var(--board-hole,#000))"/><path d="M21.09 21.02L19.36 20.02L20.74 19.22L22.47 20.22Z" style="fill:color-mix(in srgb,currentColor 30%,var(--board-hole,#000))"/><path d="M22.08 21.05L22.95 20.55L23.38 20.8L22.52 21.3Z" style="fill:color-mix(in srgb,currentColor 30%,var(--board-hole,#000))"/><path d="M22.82 21.47L23.69 20.97L24.12 21.22L23.25 21.72Z" style="fill:color-mix(in srgb,currentColor 30%,var(--board-hole,#000))"/><path d="M37.79 24.75L37.79 25.5L37.12 25.5L37.12 24.75Z" style="fill:color-mix(in srgb,currentColor 30%,var(--board-hole,#000))"/><path d="M49.58 29.27L50.1 29.57L49.84 29.72L49.32 29.42Z" style="fill:color-mix(in srgb,currentColor 30%,var(--board-hole,#000))"/><path d="M44.08 31.25L43.21 30.75L43.65 30.5L44.51 31Z" style="fill:color-mix(in srgb,currentColor 30%,var(--board-hole,#000))"/><path d="M53.74 30.87L54.25 31.17L54 31.32L53.48 31.02Z" style="fill:color-mix(in srgb,currentColor 30%,var(--board-hole,#000))"/><path d="M44.9 31.37L45.77 30.87L46.2 31.12L45.34 31.62Z" style="fill:color-mix(in srgb,currentColor 30%,var(--board-hole,#000))"/><path d="M62.74 31.2L61.88 31.7L61.44 31.45L62.31 30.95Z" style="fill:color-mix(in srgb,currentColor 30%,var(--board-hole,#000))"/><path d="M46.29 31.52L46.81 31.22L47.07 31.37L46.55 31.67Z" style="fill:color-mix(in srgb,currentColor 30%,var(--board-hole,#000))"/><path d="M43.52 31.82L42.65 31.32L43.08 31.07L43.95 31.57Z" style="fill:color-mix(in srgb,currentColor 30%,var(--board-hole,#000))"/><path d="M59.62 31.87L58.76 31.37L59.19 31.12L60.06 31.62Z" style="fill:color-mix(in srgb,currentColor 30%,var(--board-hole,#000))"/><path d="M63.76 32.14L62.89 31.64L63.33 31.39L64.19 31.89Z" style="fill:color-mix(in srgb,currentColor 30%,var(--board-hole,#000))"/><path d="M58.76 32.27L57.89 31.77L58.33 31.52L59.19 32.02Z" style="fill:color-mix(in srgb,currentColor 30%,var(--board-hole,#000))"/><path d="M47.33 32.12L47.85 31.82L48.11 31.97L47.59 32.27Z" style="fill:color-mix(in srgb,currentColor 30%,var(--board-hole,#000))"/><path d="M46.2 32.17L46.72 31.87L46.98 32.02L46.46 32.32Z" style="fill:color-mix(in srgb,currentColor 30%,var(--board-hole,#000))"/><path d="M41.35 32.27L42.22 31.77L42.65 32.02L41.78 32.52Z" style="fill:color-mix(in srgb,currentColor 30%,var(--board-hole,#000))"/><path d="M63.04 32.55L62.18 32.05L62.61 31.8L63.48 32.3Z" style="fill:color-mix(in srgb,currentColor 30%,var(--board-hole,#000))"/><path d="M60.36 32.25L60.88 31.95L61.14 32.1L60.62 32.4Z" style="fill:color-mix(in srgb,currentColor 30%,var(--board-hole,#000))"/><path d="M49.15 32.52L48.63 32.22L48.89 32.07L49.41 32.37Z" style="fill:color-mix(in srgb,currentColor 30%,var(--board-hole,#000))"/><path d="M45.25 32L45.25 32.7L44.64 32.7L44.64 32Z" style="fill:color-mix(in srgb,currentColor 30%,var(--board-hole,#000))"/><path d="M65.38 32.25L64.52 32.75L64.08 32.5L64.95 32Z" style="fill:color-mix(in srgb,currentColor 30%,var(--board-hole,#000))"/><path d="M66.38 32.47L65.86 32.77L65.6 32.62L66.12 32.32Z" style="fill:color-mix(in srgb,currentColor 30%,var(--board-hole,#000))"/><path d="M62.35 32.95L61.49 32.45L61.92 32.2L62.78 32.7Z" style="fill:color-mix(in srgb,currentColor 30%,var(--board-hole,#000))"/><path d="M58.97 33.1L58.11 32.6L58.54 32.35L59.41 32.85Z" style="fill:color-mix(in srgb,currentColor 30%,var(--board-hole,#000))"/><path d="M46.7 32.86L45.96 32.86L45.96 32.64L46.7 32.64Z" style="fill:color-mix(in srgb,currentColor 30%,var(--board-hole,#000))"/><path d="M61.14 32.55L61.66 32.85L61.4 33L60.88 32.7Z" style="fill:color-mix(in srgb,currentColor 30%,var(--board-hole,#000))"/><path d="M47.15 33.02L48.02 32.52L48.45 32.77L47.59 33.27Z" style="fill:color-mix(in srgb,currentColor 30%,var(--board-hole,#000))"/><path d="M42.94 32.07L44.82 33.15L43.66 33.82L41.78 32.74Z" style="fill:color-mix(in srgb,currentColor 30%,var(--board-hole,#000))"/><path d="M57.03 33.12L57.55 32.82L57.81 32.97L57.29 33.27Z" style="fill:color-mix(in srgb,currentColor 30%,var(--board-hole,#000))"/><path d="M65.3 32.95L65.82 33.25L65.56 33.4L65.04 33.1Z" style="fill:color-mix(in srgb,currentColor 30%,var(--board-hole,#000))"/><path d="M61.01 33.07L61.53 33.37L61.27 33.52L60.75 33.22Z" style="fill:color-mix(in srgb,currentColor 30%,var(--board-hole,#000))"/><path d="M60.32 33.52L59.8 33.22L60.06 33.07L60.58 33.37Z" style="fill:color-mix(in srgb,currentColor 30%,var(--board-hole,#000))"/><path d="M57.5 33.4L58.02 33.1L58.28 33.25L57.76 33.55Z" style="fill:color-mix(in srgb,currentColor 30%,var(--board-hole,#000))"/><path d="M45.46 33.25L44.95 33.55L44.69 33.4L45.21 33.1Z" style="fill:color-mix(in srgb,currentColor 30%,var(--board-hole,#000))"/><path d="M48.28 33.57L48.8 33.27L49.06 33.42L48.54 33.72Z" style="fill:color-mix(in srgb,currentColor 30%,var(--board-hole,#000))"/><path d="M59.49 33.35L60.01 33.65L59.75 33.8L59.23 33.5Z" style="fill:color-mix(in srgb,currentColor 30%,var(--board-hole,#000))"/><path d="M56.68 33.42L57.2 33.72L56.94 33.87L56.42 33.57Z" style="fill:color-mix(in srgb,currentColor 30%,var(--board-hole,#000))"/><path d="M62.44 33.93L64.31 32.85L65.47 33.52L63.6 34.6Z" style="fill:color-mix(in srgb,currentColor 30%,var(--board-hole,#000))"/><path d="M62.53 33.75L61.66 34.25L61.23 34L62.09 33.5Z" style="fill:color-mix(in srgb,currentColor 30%,var(--board-hole,#000))"/><path d="M58.97 33.65L59.49 33.95L59.23 34.1L58.71 33.8Z" style="fill:color-mix(in srgb,currentColor 30%,var(--board-hole,#000))"/><path d="M44.64 34.17L44.12 33.87L44.38 33.72L44.9 34.02Z" style="fill:color-mix(in srgb,currentColor 30%,var(--board-hole,#000))"/><path d="M55.98 34.95L55.98 34.25L56.6 34.25L56.6 34.95Z" style="fill:color-mix(in srgb,currentColor 30%,var(--board-hole,#000))"/><path d="M63.26 35.02L62.4 34.52L62.83 34.27L63.69 34.77Z" style="fill:color-mix(in srgb,currentColor 30%,var(--board-hole,#000))"/><path d="M57.1 34.99L57.1 34.56L57.47 34.56L57.47 34.99Z" style="fill:color-mix(in srgb,currentColor 30%,var(--board-hole,#000))"/><path d="M55.12 35.27L54.25 34.77L54.69 34.52L55.55 35.02Z" style="fill:color-mix(in srgb,currentColor 30%,var(--board-hole,#000))"/><path d="M62.57 35.42L61.7 34.92L62.14 34.67L63 35.17Z" style="fill:color-mix(in srgb,currentColor 30%,var(--board-hole,#000))"/><path d="M56.59 35.37L57.11 35.67L56.85 35.82L56.33 35.52Z" style="fill:color-mix(in srgb,currentColor 30%,var(--board-hole,#000))"/><path d="M55.21 35.67L54.69 35.97L54.43 35.82L54.95 35.52Z" style="fill:color-mix(in srgb,currentColor 30%,var(--board-hole,#000))"/><path d="M55.77 35.85L56.29 36.15L56.03 36.3L55.51 36Z" style="fill:color-mix(in srgb,currentColor 30%,var(--board-hole,#000))"/><path d="M51.98 36.39L51.12 36.89L50.68 36.64L51.55 36.14Z" style="fill:color-mix(in srgb,currentColor 30%,var(--board-hole,#000))"/><path d="M52.7 36.8L51.83 37.3L51.4 37.05L52.26 36.55Z" style="fill:color-mix(in srgb,currentColor 30%,var(--board-hole,#000))"/></g></svg>