<svg xmlns="http://www.w3.org/2000/svg" viewBox="-37.9 -2.21 82.73 49.42"><g id="l" transform="matrix(.866 .5 -.866 .5 0 0)"><g style="color:var(--board-copper,currentColor)" fill="currentColor" fill-opacity=".55" stroke="currentColor" stroke-width=".6"><rect x="39.97" y="14.58" width=".6" height="1.24" transform="rotate(-90 40.27 15.2)"/><rect x="39.97" y="13.78" width=".6" height="1.24" transform="rotate(-90 40.27 14.4)"/><rect x="40.12" y="12.63" width=".3" height="1.24" transform="rotate(-90 40.27 13.25)"/><rect x="40.12" y="11.63" width=".3" height="1.24" transform="rotate(-90 40.27 12.25)"/><rect x="40.12" y="11.13" width=".3" height="1.24" transform="rotate(-90 40.27 11.75)"/><rect x="40.12" y="10.13" width=".3" height="1.24" transform="rotate(-90 40.27 10.75)"/><rect x="39.97" y="8.98" width=".6" height="1.24" transform="rotate(-90 40.27 9.6)"/><rect x="39.97" y="8.18" width=".6" height="1.24" transform="rotate(-90 40.27 8.8)"/><rect x="39.97" y="8.18" width=".6" height="1.24" transform="rotate(-90 40.27 8.8)"/><rect x="39.97" y="8.98" width=".6" height="1.24" transform="rotate(-90 40.27 9.6)"/><rect x="40.12" y="9.63" width=".3" height="1.24" transform="rotate(-90 40.27 10.25)"/><rect x="40.12" y="10.63" width=".3" height="1.24" transform="rotate(-90 40.27 11.25)"/><rect x="40.12" y="12.13" width=".3" height="1.24" transform="rotate(-90 40.27 12.75)"/><rect x="40.12" y="13.13" width=".3" height="1.24" transform="rotate(-90 40.27 13.75)"/><rect x="39.97" y="13.78" width=".6" height="1.24" transform="rotate(-90 40.27 14.4)"/><rect x="39.97" y="14.58" width=".6" height="1.24" transform="rotate(-90 40.27 15.2)"/><rect x="40.37" y="15.27" width="1" height="2.1" rx=".5" transform="rotate(-90 40.87 16.32)"/><rect x="44.57" y="15.42" width="1" height="1.8" rx=".5" transform="rotate(-90 45.07 16.32)"/><rect x="40.37" y="6.63" width="1" height="2.1" rx=".5" transform="rotate(-90 40.87 7.68)"/><rect x="44.57" y="6.78" width="1" height="1.8" rx=".5" transform="rotate(-90 45.07 7.68)"/><circle cx="46.5" cy="2.5" r="1.45"/><circle cx="46.5" cy="2.5" r="2.5"/><circle cx="36.06" cy="11.22" r=".1"/><rect x="36.24" y="11.46" width=".63" height=".2" transform="rotate(-90 36.55 11.56)"/><rect x="36.64" y="11.46" width=".63" height=".2" transform="rotate(-90 36.95 11.56)"/><rect x="37.04" y="11.46" width=".63" height=".2" transform="rotate(-90 37.35 11.56)"/><circle cx="37.82" cy="11.22" r=".1"/><rect x="37.99" y="10.5" width=".2" height=".6" transform="rotate(-90 38.09 10.8)"/><rect x="37.99" y="10.1" width=".2" height=".6" transform="rotate(-90 38.09 10.4)"/><rect x="37.79" y="9.5" width=".2" height="1" transform="rotate(-90 37.89 10)"/><rect x="37.79" y="9.1" width=".2" height="1" transform="rotate(-90 37.89 9.6)"/><circle cx="37.82" cy="9.17" r=".09"/><rect x="37.25" y="8.47" width=".2" height=".6" transform="rotate(-180 37.35 8.77)"/><rect x="36.85" y="8.47" width=".2" height=".6" transform="rotate(-180 36.95 8.77)"/><rect x="36.45" y="8.47" width=".2" height=".6" transform="rotate(-180 36.55 8.77)"/><circle cx="36.06" cy="9.17" r=".09"/><rect x="35.89" y="9.1" width=".2" height="1" transform="rotate(-90 35.99 9.6)"/><rect x="35.89" y="9.5" width=".2" height="1" transform="rotate(-90 35.99 10)"/><rect x="35.89" y="9.9" width=".2" height="1" transform="rotate(-90 35.99 10.4)"/><rect x="35.7" y="10.5" width=".2" height=".6" transform="rotate(-90 35.8 10.8)"/><circle cx="46.5" cy="38.5" r="1.45"/><circle cx="46.5" cy="38.5" r="2.5"/><rect x="29.29" y="15.06" width="1.43" height="2.2" rx=".26" transform="rotate(-90 30 16.16)"/><rect x="29.29" y="12.74" width="1.43" height="2.2" rx=".26" transform="rotate(-90 30 13.84)"/><circle cx="38.5" cy="3" r=".64"/><circle cx="36.5" cy="3" r=".64"/><rect x="37.34" y="14.65" width="1.33" height=".6" rx=".15" transform="rotate(-180 38 14.95)"/><rect x="37.34" y="13.7" width="1.33" height=".6" rx=".15" transform="rotate(-180 38 14)"/><rect x="37.34" y="12.75" width="1.33" height=".6" rx=".15" transform="rotate(-180 38 13.05)"/><rect x="35.06" y="12.75" width="1.33" height=".6" rx=".15" transform="rotate(-180 35.72 13.05)"/><rect x="35.06" y="13.7" width="1.33" height=".6" rx=".15" transform="rotate(-180 35.72 14)"/><rect x="35.06" y="14.65" width="1.33" height=".6" rx=".15" transform="rotate(-180 35.72 14.95)"/><rect x="19.15" y="22.15" width="1.7" height="1.7" transform="rotate(-270 20 23)"/><circle cx="17.46" cy="23" r=".85"/><circle cx="14.92" cy="23" r=".85"/><circle cx="2.5" cy="2.5" r="1.45"/><circle cx="2.5" cy="2.5" r="2.5"/><circle cx="2.5" cy="38.5" r="1.45"/><circle cx="2.5" cy="38.5" r="2.5"/><rect x="19.15" y="26.15" width="1.7" height="1.7" transform="rotate(-270 20 27)"/><circle cx="17.46" cy="27" r=".85"/><rect x="33.25" y="28.25" width="3.5" height="3.5" transform="rotate(-180 35 30)"/><rect x="39.5" y="28.25" width="3" height="3.5" rx=".75" transform="rotate(-180 41 30)"/><rect x="36.25" y="23.55" width="3.5" height="3.5" rx=".88" transform="rotate(-180 38 25.3)"/><rect x="19.15" y="30.15" width="1.7" height="1.7" transform="rotate(-270 20 31)"/><circle cx="17.46" cy="31" r=".85"/><rect x="19.15" y="10.15" width="1.7" height="1.7" transform="rotate(-270 20 11)"/><circle cx="17.46" cy="11" r=".85"/><circle cx="14.92" cy="11" r=".85"/><rect x="19.15" y="14.15" width="1.7" height="1.7" transform="rotate(-270 20 15)"/><circle cx="17.46" cy="15" r=".85"/><circle cx="14.92" cy="15" r=".85"/><rect x="19.15" y="18.15" width="1.7" height="1.7" transform="rotate(-270 20 19)"/><circle cx="17.46" cy="19" r=".85"/><circle cx="14.92" cy="19" r=".85"/></g><g style="fill:var(--board-hole,none);color:var(--board-ink,currentColor)" stroke="currentColor" stroke-width=".6"><circle cx="40.87" cy="16.32" r=".3"/><circle cx="45.07" cy="16.32" r=".3"/><circle cx="40.87" cy="7.68" r=".3"/><circle cx="45.07" cy="7.68" r=".3"/><circle cx="46.5" cy="2.5" r="1.25"/><circle cx="46.5" cy="38.5" r="1.25"/><circle cx="38.5" cy="3" r=".38"/><circle cx="36.5" cy="3" r=".38"/><circle cx="20" cy="23" r=".5"/><circle cx="17.46" cy="23" r=".5"/><circle cx="14.92" cy="23" r=".5"/><circle cx="2.5" cy="2.5" r="1.25"/><circle cx="2.5" cy="38.5" r="1.25"/><circle cx="20" cy="27" r=".5"/><circle cx="17.46" cy="27" r=".5"/><circle cx="35" cy="30" r=".5"/><circle cx="41" cy="30" r=".5"/><circle cx="38" cy="25.3" r="1.5"/><circle cx="20" cy="31" r=".5"/><circle cx="17.46" cy="31" r=".5"/><circle cx="20" cy="11" r=".5"/><circle cx="17.46" cy="11" r=".5"/><circle cx="14.92" cy="11" r=".5"/><circle cx="20" cy="15" r=".5"/><circle cx="17.46" cy="15" r=".5"/><circle cx="14.92" cy="15" r=".5"/><circle cx="20" cy="19" r=".5"/><circle cx="17.46" cy="19" r=".5"/><circle cx="14.92" cy="19" r=".5"/></g></g></svg>