<svg xmlns="http://www.w3.org/2000/svg" viewBox="-1.04 -1.04 24.9 28.21"><g id="l"><g style="fill:var(--board-hole,none);color:var(--board-copper,currentColor)" stroke="currentColor" stroke-width=".75"><circle cx="14.99" cy="10.76" r=".3"/><circle cx="14.99" cy="10.76" r=".15" stroke-opacity=".6"/><circle cx="12.69" cy="10.26" r=".3"/><circle cx="12.69" cy="10.26" r=".15" stroke-opacity=".6"/><circle cx="8.09" cy="13.11" r=".3"/><circle cx="8.09" cy="13.11" r=".15" stroke-opacity=".6"/><circle cx="7.62" cy="9.33" r=".3"/><circle cx="7.62" cy="9.33" r=".15" stroke-opacity=".6"/><circle cx="8.09" cy="18.11" r=".3"/><circle cx="8.09" cy="18.11" r=".15" stroke-opacity=".6"/><circle cx="15.09" cy="12.11" r=".3"/><circle cx="15.09" cy="12.11" r=".15" stroke-opacity=".6"/><circle cx="13.09" cy="13.11" r=".3"/><circle cx="13.09" cy="13.11" r=".15" stroke-opacity=".6"/><circle cx="11.68" cy="11.65" r=".3"/><circle cx="11.68" cy="11.65" r=".15" stroke-opacity=".6"/><circle cx="20.84" cy="13.61" r=".3"/><circle cx="20.84" cy="13.61" r=".15" stroke-opacity=".6"/><circle cx="11.09" cy="16.11" r=".3"/><circle cx="11.09" cy="16.11" r=".15" stroke-opacity=".6"/><circle cx="20.84" cy="16.66" r=".3"/><circle cx="20.84" cy="16.66" r=".15" stroke-opacity=".6"/><circle cx="12.09" cy="17.11" r=".3"/><circle cx="12.09" cy="17.11" r=".15" stroke-opacity=".6"/></g></g></svg>